<svg xmlns="http://www.w3.org/2000/svg" viewBox="0 0 512 512">
<defs><linearGradient id="b" x1="0" y1="0" x2="1" y2="1"><stop stop-color="#07172d"/><stop offset=".55" stop-color="#0d3263"/><stop offset="1" stop-color="#08182e"/></linearGradient><linearGradient id="g" x1="0" y1="0" x2="1" y2="1"><stop stop-color="#fff1ad"/><stop offset=".45" stop-color="#e9b95c"/><stop offset="1" stop-color="#9b641e"/></linearGradient><filter id="gl"><feGaussianBlur stdDeviation="5" result="b"/><feMerge><feMergeNode in="b"/><feMergeNode in="SourceGraphic"/></feMerge></filter></defs>
<rect x="16" y="16" width="480" height="480" rx="112" fill="url(#b)" stroke="#2e9cff" stroke-width="7"/>
<g filter="url(#gl)"><path d="M245 83c-88 20-142 108-121 196 20 87 108 142 196 121-37 42-94 66-154 57C61 441-13 344 3 239 18 135 115 61 219 76c9 1 18 4 26 7z" transform="translate(63 -5) scale(.78)" fill="url(#g)"/></g>
<rect x="205" y="145" width="174" height="205" rx="26" fill="#0a2345" stroke="#f0cb79" stroke-width="7"/>
<path d="M230 196h115M230 238h115M230 280h78" stroke="#f5d996" stroke-width="7" stroke-linecap="round" opacity=".9"/>
<g stroke="#f0cb79" stroke-width="11" stroke-linecap="round"><path d="M190 181h31M190 228h31M190 275h31"/></g>
<g transform="rotate(34 350 274)"><rect x="335" y="185" width="28" height="174" rx="14" fill="#1267ba" stroke="#f1cb75" stroke-width="6"/><path d="M339 342h20l-10 27z" fill="#f1cb75"/></g>
<g fill="#fff0ad"><path d="M394 111l7 18 18 7-18 7-7 18-7-18-18-7 18-7z"/><path d="M426 225l4 10 10 4-10 4-4 10-4-10-10-4 10-4z"/></g>
<text x="256" y="421" text-anchor="middle" font-family="Arial,sans-serif" font-size="55" font-weight="700" letter-spacing="12" fill="url(#g)">LUNA</text>
<text x="256" y="459" text-anchor="middle" font-family="Arial,sans-serif" font-size="25" letter-spacing="12" fill="#bfe3ff">NOTES</text>
</svg>