<svg xmlns="http://www.w3.org/2000/svg" viewBox="0 0 512 512">
<defs>
<linearGradient id="b" x1="0" y1="0" x2="1" y2="1"><stop stop-color="#07172d"/><stop offset=".55" stop-color="#0d3263"/><stop offset="1" stop-color="#08182e"/></linearGradient>
<linearGradient id="g" x1="0" y1="0" x2="1" y2="1"><stop stop-color="#fff1ad"/><stop offset=".45" stop-color="#e9b95c"/><stop offset="1" stop-color="#9b641e"/></linearGradient>
<filter id="gl"><feGaussianBlur stdDeviation="5" result="b"/><feMerge><feMergeNode in="b"/><feMergeNode in="SourceGraphic"/></feMerge></filter>
</defs>
<rect x="16" y="16" width="480" height="480" rx="112" fill="url(#b)" stroke="#2e9cff" stroke-width="7"/>
<g filter="url(#gl)"><path d="M245 83c-88 20-142 108-121 196 20 87 108 142 196 121-37 42-94 66-154 57C61 441-13 344 3 239 18 135 115 61 219 76c9 1 18 4 26 7z" transform="translate(63 -5) scale(.78)" fill="url(#g)"/></g>
<g fill="none" stroke="#f0cb79" stroke-width="12" stroke-linecap="round" stroke-linejoin="round">
<path d="M174 190h43l24 126h126l28-91H226"/>
<path d="M248 349h111"/>
</g>
<circle cx="263" cy="376" r="14" fill="#1267ba" stroke="#f0cb79" stroke-width="6"/>
<circle cx="350" cy="376" r="14" fill="#1267ba" stroke="#f0cb79" stroke-width="6"/>
<g fill="#fff0ad"><path d="M394 111l7 18 18 7-18 7-7 18-7-18-18-7 18-7z"/><path d="M426 225l4 10 10 4-10 4-4 10-4-10-10-4 10-4z"/></g>
<text x="256" y="431" text-anchor="middle" font-family="Arial,sans-serif" font-size="49" font-weight="700" letter-spacing="9" fill="url(#g)">LUNA</text>
<text x="256" y="465" text-anchor="middle" font-family="Arial,sans-serif" font-size="21" letter-spacing="8" fill="#bfe3ff">SHOP</text>
</svg>